<svg xmlns="http://www.w3.org/2000/svg" width="13" height="17" viewBox="0 0 13 17" fill="none">
  <path d="M4.72977 16.0388C1.49986 16.0388 0.634224 14.317 0.475974 12.8725C0.401584 12.1908 0.304199 4.59073 0.304199 4.51364C0.304199 4.13763 0.400231 3.50192 1.0427 3.50192C1.64594 3.50192 1.91645 4.01184 1.91645 4.51634L1.97867 7.65969C1.98137 7.7706 2.07064 7.88286 2.18155 7.88286C2.29246 7.88286 2.38173 7.76925 2.38444 7.65834L2.46424 2.48615C2.46424 1.97759 2.73475 1.46226 3.33799 1.46226C3.94123 1.46226 4.21174 1.96812 4.21174 2.47398L4.27667 7.60288C4.27802 7.71379 4.36864 7.80171 4.47955 7.80171C4.59046 7.80171 4.68108 7.71244 4.68243 7.60153L4.75953 1.28373C4.75953 0.776516 5.03004 0.266602 5.63328 0.266602C6.23653 0.266602 6.50704 0.776516 6.50704 1.28102L6.58684 7.56501C6.58819 7.67592 6.67881 7.76519 6.78972 7.76519C6.90063 7.76519 6.99125 7.67592 6.99261 7.56501L7.05618 2.87839C7.05618 2.37118 7.32669 1.86127 7.92993 1.86127C8.53317 1.86127 8.80368 2.37118 8.80368 2.87569C8.81856 4.55557 8.85508 8.94192 8.84967 9.09881C8.83885 9.22325 8.88484 9.3044 8.92541 9.34904C8.97952 9.40855 9.05796 9.44236 9.14588 9.44236C9.34065 9.44236 9.53407 9.28817 9.58817 9.24083C9.82892 9.03254 10.0359 8.70657 10.255 8.36167C10.5282 7.93156 10.8122 7.48521 11.1152 7.36213C11.3533 7.2661 11.6414 7.21199 11.9281 7.21199C12.388 7.21199 12.6761 7.34725 12.7248 7.4798C12.9358 8.0614 12.6815 8.28457 12.0363 8.77826L11.9119 8.87429C11.2721 9.36797 10.8569 10.3729 10.489 11.2589C10.3388 11.62 10.1982 11.9622 10.0521 12.2489C9.96418 12.4221 9.88844 12.6263 9.80052 12.8616C9.33253 14.1276 8.62109 16.0388 4.72977 16.0388Z" fill="#DAD9D9"/>
  <path d="M5.63244 0.470709C5.94218 0.470709 6.30331 0.683061 6.30331 1.28766L6.38311 7.59329C6.38582 7.81511 6.56706 8.01799 6.78888 8.01799C7.0107 8.01799 7.19194 7.81511 7.19465 7.59329L7.25822 2.88909C7.25822 2.51443 7.43405 2.07214 7.92909 2.07214C8.42412 2.07214 8.59996 2.50631 8.59996 2.88368C8.62025 5.26418 8.65 8.85658 8.64594 9.08922C8.63242 9.28669 8.70816 9.41383 8.77444 9.48822C8.86776 9.59102 9.00031 9.64647 9.14504 9.64647C9.40203 9.64647 9.63331 9.47064 9.71988 9.3949C9.98227 9.16767 10.1973 8.82953 10.4246 8.4711C10.6694 8.08562 10.9466 7.65009 11.1901 7.55136C11.4011 7.46615 11.6703 7.4161 11.9273 7.4161C12.3033 7.4161 12.5007 7.51619 12.5359 7.55677C12.6874 7.97877 12.5684 8.11673 11.9124 8.61718L11.7879 8.71321C11.1049 9.23935 10.6788 10.2714 10.3015 11.1816C10.154 11.5401 10.0134 11.8768 9.87136 12.1568C9.77804 12.3408 9.69553 12.5599 9.61032 12.7912C9.38309 13.4012 9.1004 14.1613 8.42277 14.7619C7.60853 15.4855 6.39934 15.8358 4.72623 15.8358C3.02606 15.8358 0.944471 15.3178 0.673959 12.8493C0.613094 12.2921 0.529235 6.64109 0.503536 4.51486C0.503536 3.97654 0.710478 3.70333 1.0662 3.70333C1.37594 3.70333 1.76412 3.91568 1.76412 4.51486V4.52298L1.79929 7.62845C1.80335 7.84892 1.95754 8.01664 2.178 8.01664H2.17936C2.40118 8.01664 2.58107 7.84757 2.58377 7.6271L2.66357 2.46573C2.66357 2.09108 2.83941 1.6569 3.33444 1.6569C3.82948 1.6569 4.00531 2.09513 4.00531 2.4752L4.06618 7.60276C4.07159 7.82593 4.20008 8.00447 4.47059 8.00447C4.74111 8.00447 4.87771 7.82593 4.88042 7.60411L4.96022 1.28224C4.96022 0.683061 5.32271 0.470709 5.63244 0.470709ZM5.63244 0.0649414C4.96292 0.0649414 4.5558 0.610023 4.5558 1.28224L4.47871 7.5987L4.41379 2.47114C4.41379 1.79892 4.00667 1.25384 3.33715 1.25384C2.66763 1.25384 2.26051 1.79892 2.26051 2.47114L2.18071 7.63116L2.11714 4.51621C2.11714 3.84399 1.70867 3.29891 1.0405 3.29891C0.370985 3.29891 0.0991211 3.84399 0.0991211 4.51621C0.0991211 4.51621 0.196505 12.196 0.272249 12.894C0.398037 14.0436 1.04862 16.2416 4.72758 16.2416C9.47506 16.2416 9.68336 13.4201 10.2338 12.3408C10.7465 11.3358 11.1928 9.68435 12.0368 9.03376C12.7077 8.51573 13.2027 8.206 12.916 7.41069C12.8199 7.14559 12.4006 7.00898 11.9286 7.00898C11.631 7.00898 11.3118 7.06308 11.04 7.17399C10.4178 7.42692 9.97957 8.63341 9.45748 9.08651C9.3601 9.17037 9.23295 9.23935 9.14774 9.23935C9.08553 9.23935 9.04495 9.20283 9.05306 9.11086C9.06118 9.01753 9.00708 2.87691 9.00708 2.87691C9.00708 2.20469 8.59996 1.65961 7.93044 1.65961C7.26092 1.65961 6.8538 2.20469 6.8538 2.87691L6.79023 7.56353L6.70908 1.28224C6.70908 0.60867 6.30196 0.0649414 5.63244 0.0649414Z" fill="#DAD9D9"/>
  <mask id="mask0_1047_265" style="mask-type:luminance" maskUnits="userSpaceOnUse" x="0" y="6" width="13" height="11">
    <path d="M12.4408 7.31449C12.1338 6.97229 11.3574 6.81134 10.6095 7.1062C9.98051 7.35371 9.2623 9.70176 9.2623 9.70176L8.73886 8.83612C8.73886 8.83612 -0.124462 11.7441 0.00132633 12.8938C0.127114 14.0435 1.04821 16.2414 4.72717 16.2414C9.47465 16.2414 9.68295 13.4199 10.2334 12.3406C10.7461 11.3356 11.3912 8.99843 12.1838 8.74956C12.6978 8.58995 12.7005 7.60259 12.4408 7.31449Z" fill="white"/>
  </mask>
  <g mask="url(#mask0_1047_265)">
    <path d="M9.19101 8.89404C7.71536 9.45671 6.84567 10.8458 6.31141 12.6677C6.23837 12.9193 6.46966 12.9923 6.55892 12.7461C7.48678 10.1925 9.78748 9.34985 9.78748 9.34985L9.19101 8.89404Z" fill="#DAD9D9"/>
  </g>
</svg>