<svg xmlns="http://www.w3.org/2000/svg" width="17" height="18" viewBox="0 0 17 18" fill="none">
  <path d="M8.50024 2.62256C7.79576 2.62256 7.12014 2.90209 6.62199 3.39965C6.12385 3.89722 5.84399 4.57206 5.84399 5.27573V8.99017C5.84399 9.69383 6.12385 10.3687 6.62199 10.8662C7.12014 11.3638 7.79576 11.6433 8.50024 11.6433C9.20473 11.6433 9.88035 11.3638 10.3785 10.8662C10.8766 10.3687 11.1565 9.69383 11.1565 8.99017V5.27573C11.1565 4.57206 10.8766 3.89722 10.3785 3.39965C9.88035 2.90209 9.20473 2.62256 8.50024 2.62256ZM4.25024 8.45953C4.39114 8.45953 4.52627 8.51544 4.62589 8.61495C4.72552 8.71447 4.78149 8.84943 4.78149 8.99017C4.78149 9.9753 5.17329 10.9201 5.87069 11.6167C6.56809 12.3133 7.51397 12.7046 8.50024 12.7046C9.48652 12.7046 10.4324 12.3133 11.1298 11.6167C11.8272 10.9201 12.219 9.9753 12.219 8.99017C12.219 8.84943 12.275 8.71447 12.3746 8.61495C12.4742 8.51544 12.6093 8.45953 12.7502 8.45953C12.8911 8.45953 13.0263 8.51544 13.1259 8.61495C13.2255 8.71447 13.2815 8.84943 13.2815 8.99017C13.2817 10.165 12.8484 11.2988 12.0643 12.1745C11.2802 13.0503 10.2004 13.6067 9.03149 13.7372V14.8271C9.03149 14.9679 8.97552 15.1028 8.8759 15.2024C8.77627 15.3019 8.64114 15.3578 8.50024 15.3578C8.35935 15.3578 8.22422 15.3019 8.12459 15.2024C8.02497 15.1028 7.96899 14.9679 7.96899 14.8271V13.7372C6.80004 13.6067 5.72028 13.0503 4.9362 12.1745C4.15213 11.2988 3.71877 10.165 3.71899 8.99017C3.71899 8.84943 3.77497 8.71447 3.87459 8.61495C3.97422 8.51544 4.10935 8.45953 4.25024 8.45953Z" fill="#DAD9D9"/>
</svg>