<svg xmlns="http://www.w3.org/2000/svg" width="15" height="16" viewBox="0 0 15 16" fill="none">
  <path d="M8.53125 14.234H6.46875C6.35417 14.234 6.25261 14.1976 6.16406 14.1248C6.07552 14.052 6.02083 13.9583 6 13.8439L5.75 12.2676C5.55208 12.1947 5.34375 12.0959 5.125 11.971C4.90625 11.8462 4.71354 11.7161 4.54688 11.5809L3.09375 12.252C2.97917 12.304 2.86458 12.3118 2.75 12.2754C2.63542 12.239 2.54688 12.1635 2.48438 12.0491L1.45313 10.2231C1.39063 10.119 1.375 10.0098 1.40625 9.89533C1.4375 9.78088 1.5 9.68724 1.59375 9.6144L2.9375 8.63117C2.91667 8.53753 2.90365 8.43088 2.89844 8.31123C2.89323 8.19158 2.89063 8.08493 2.89063 7.99129C2.89063 7.89765 2.89323 7.791 2.89844 7.67135C2.90365 7.55169 2.91667 7.44505 2.9375 7.35141L1.59375 6.36817C1.5 6.29534 1.4375 6.2017 1.40625 6.08725C1.375 5.9728 1.39063 5.86355 1.45313 5.7595L2.48438 3.9335C2.54688 3.81905 2.63542 3.74361 2.75 3.7072C2.86458 3.67078 2.97917 3.67859 3.09375 3.73061L4.54688 4.40171C4.71354 4.26645 4.90625 4.13639 5.125 4.01153C5.34375 3.88668 5.55208 3.79304 5.75 3.73061L6 2.13871C6.02083 2.02426 6.07552 1.93062 6.16406 1.85778C6.25261 1.78495 6.35417 1.74854 6.46875 1.74854H8.53125C8.64583 1.74854 8.7474 1.78495 8.83594 1.85778C8.92448 1.93062 8.97917 2.02426 9 2.13871L9.25 3.715C9.44792 3.78783 9.65886 3.88408 9.88281 4.00373C10.1068 4.12338 10.2969 4.25604 10.4531 4.40171L11.9063 3.73061C12.0208 3.67859 12.1354 3.67078 12.25 3.7072C12.3646 3.74361 12.4531 3.81905 12.5156 3.9335L13.5469 5.7439C13.6094 5.84794 13.6276 5.95979 13.6016 6.07945C13.5755 6.1991 13.5104 6.29534 13.4063 6.36817L12.0625 7.32019C12.0833 7.42424 12.0964 7.53609 12.1016 7.65574C12.1068 7.77539 12.1094 7.88724 12.1094 7.99129C12.1094 8.09533 12.1068 8.20458 12.1016 8.31903C12.0964 8.43348 12.0833 8.54273 12.0625 8.64678L13.4063 9.6144C13.5 9.68724 13.5625 9.78088 13.5938 9.89533C13.625 10.0098 13.6094 10.119 13.5469 10.2231L12.5156 12.0491C12.4531 12.1635 12.3646 12.239 12.25 12.2754C12.1354 12.3118 12.0208 12.304 11.9063 12.252L10.4531 11.5809C10.2865 11.7161 10.0964 11.8488 9.88281 11.9788C9.66927 12.1089 9.45833 12.2051 9.25 12.2676L9 13.8439C8.97917 13.9583 8.92448 14.052 8.83594 14.1248C8.7474 14.1976 8.64583 14.234 8.53125 14.234ZM7.5 10.0202C8.0625 10.0202 8.54167 9.8225 8.9375 9.42712C9.33333 9.03175 9.53125 8.55314 9.53125 7.99129C9.53125 7.42944 9.33333 6.95083 8.9375 6.55546C8.54167 6.16008 8.0625 5.96239 7.5 5.96239C6.9375 5.96239 6.45833 6.16008 6.0625 6.55546C5.66667 6.95083 5.46875 7.42944 5.46875 7.99129C5.46875 8.55314 5.66667 9.03175 6.0625 9.42712C6.45833 9.8225 6.9375 10.0202 7.5 10.0202Z" fill="#DAD9D9"/>
</svg>