<svg width="11" height="11" viewBox="0 0 11 11" fill="none" xmlns="http://www.w3.org/2000/svg">
<path d="M10.5216 3.64165L9.69664 2.81677C9.50081 2.62097 9.18415 2.62097 8.9904 2.81677L4.00094 7.80563L1.68017 5.48305C1.48434 5.28725 1.16768 5.28725 0.973934 5.48305L0.146871 6.31001C-0.0489571 6.50582 -0.0489571 6.82244 0.146871 7.01824L3.64679 10.5198C3.84261 10.7156 4.15927 10.7156 4.35302 10.5198L10.5195 4.34988C10.7154 4.152 10.7154 3.83538 10.5216 3.64165ZM3.76553 5.84966C3.8947 5.98089 4.10719 5.98089 4.23635 5.84966L8.56958 1.5128C8.69874 1.38157 8.69874 1.17118 8.56958 1.04203L7.62794 0.0984231C7.49877 -0.0328077 7.28628 -0.0328077 7.15712 0.0984231L4.00094 3.25421L2.84681 2.09813C2.71764 1.9669 2.50515 1.9669 2.37598 2.09813L1.43226 3.04174C1.30309 3.17297 1.30309 3.38336 1.43226 3.51251L3.76553 5.84966Z" fill="#DAD9D9"/>
</svg>
