<svg width="20" height="14" viewBox="0 0 20 14" fill="none" xmlns="http://www.w3.org/2000/svg">
<path d="M19.3354 6.50573C17.5466 2.92362 14.0052 0.5 9.9502 0.5C5.89521 0.5 2.35282 2.92531 0.564969 6.50607C0.489511 6.65926 0.450195 6.82851 0.450195 7.00017C0.450195 7.17183 0.489511 7.34108 0.564969 7.49427C2.35381 11.0764 5.89521 13.5 9.9502 13.5C14.0052 13.5 17.5476 11.0747 19.3354 7.49393C19.4109 7.34074 19.4502 7.17149 19.4502 6.99983C19.4502 6.82817 19.4109 6.65892 19.3354 6.50573ZM9.9502 11.875C9.01073 11.875 8.09237 11.5891 7.31123 11.0534C6.5301 10.5177 5.92128 9.75637 5.56176 8.86558C5.20224 7.97479 5.10818 6.99459 5.29146 6.04893C5.47474 5.10328 5.92713 4.23464 6.59143 3.55285C7.25573 2.87107 8.1021 2.40677 9.02351 2.21867C9.94493 2.03057 10.9 2.12711 11.7679 2.49609C12.6359 2.86506 13.3777 3.48991 13.8997 4.29159C14.4216 5.09328 14.7002 6.03582 14.7002 7C14.7005 7.64028 14.5779 8.27435 14.3392 8.86595C14.1006 9.45755 13.7508 9.99509 13.3096 10.4478C12.8685 10.9006 12.3447 11.2597 11.7683 11.5045C11.1919 11.7494 10.5741 11.8753 9.9502 11.875ZM9.9502 3.75C9.66755 3.75405 9.38672 3.79721 9.11532 3.87831C9.33903 4.19033 9.44639 4.57431 9.41792 4.96061C9.38944 5.3469 9.22702 5.70993 8.96011 5.98387C8.6932 6.2578 8.33948 6.42449 7.96309 6.45372C7.5867 6.48294 7.21256 6.37276 6.90854 6.14315C6.73542 6.79775 6.76667 7.49159 6.99789 8.12701C7.22912 8.76242 7.64868 9.30742 8.19751 9.6853C8.74635 10.0632 9.39682 10.2549 10.0574 10.2335C10.718 10.2121 11.3553 9.97859 11.8798 9.56591C12.4043 9.15324 12.7895 8.58214 12.9812 7.93302C13.1729 7.28389 13.1614 6.58941 12.9484 5.94733C12.7354 5.30525 12.3315 4.7479 11.7937 4.35372C11.2558 3.95955 10.6111 3.7484 9.9502 3.75Z" fill="#979797"/>
</svg>
