<svg width="10" height="9" viewBox="0 0 10 9" fill="none" xmlns="http://www.w3.org/2000/svg">
<path d="M7.55998 0.458161L5.17921 2.92536L2.71202 0.544586C2.40928 0.252446 1.92684 0.261047 1.6347 0.563792L1.10564 1.11206C0.813496 1.4148 0.822096 1.89724 1.12484 2.18938L3.59204 4.57015L1.21127 7.03734C0.919127 7.34009 0.927727 7.82253 1.23047 8.11467L1.77874 8.64373C2.08148 8.93587 2.56392 8.92727 2.85606 8.62452L5.23683 6.15733L7.70402 8.5381C8.00677 8.83024 8.48921 8.82164 8.78135 8.51889L9.31041 7.97063C9.60255 7.66788 9.59395 7.18544 9.2912 6.8933L6.82401 4.51253L9.20478 2.04534C9.49692 1.7426 9.48832 1.26016 9.18557 0.968016L8.63731 0.438956C8.33456 0.146816 7.85212 0.155416 7.55998 0.458161Z" fill="#979797"/>
</svg>
